<svg width="338" height="80" viewBox="0 0 338 80" fill="none" xmlns="http://www.w3.org/2000/svg">
<g clip-path="url(#clip0_743_222)">
<path d="M18.5234 64.4444V76.8889H0.217773C5.88379 73.3333 11.9857 69.3333 18.5234 64.4444Z" fill="#006980"/>
<path d="M18.5235 59.5556C11.9858 64.8889 5.66602 69.5556 0 73.3333V62C0 60.6667 1.08962 59.5556 2.39716 59.5556H18.5235Z" fill="#FFB61C"/>
<path d="M62.5442 11.1111C58.1857 17.7778 52.7376 25.1111 45.9819 32.6667V13.5556C45.9819 12.2222 47.0716 11.1111 48.3791 11.1111H62.5442Z" fill="#FFB61C"/>
<path d="M64.5055 18.4444V74.2222C64.5055 75.7778 63.1979 77.1111 61.6725 77.1111H45.9819V40C51.2121 34.6667 55.7885 29.3333 59.9291 24.2222C60.3649 23.7778 60.5828 23.3333 61.0187 22.8889C62.3262 21.3333 63.4158 19.7778 64.5055 18.4444Z" fill="#006980"/>
<path d="M40.9697 38.2222C38.7905 40.6667 36.6112 42.8889 34.2141 45.3333C30.5094 48.8889 27.0226 52.2222 23.3179 55.3333V40.6667C23.3179 39.3333 24.4075 38.2222 25.715 38.2222H40.9697Z" fill="#FFB61C"/>
<path d="M41.1876 44.8889V76.8889H23.3179V60.6667C28.766 56.2222 34.2141 51.5556 39.8801 46.2222C40.3159 45.7778 40.7518 45.3333 41.1876 44.8889Z" fill="#006980"/>
<path d="M60.583 7.77778H68.4283V16.6667C70.3896 11.1111 72.133 5.55556 74.0943 0C69.7358 2.44444 65.1594 5.11111 60.583 7.77778Z" fill="#FFB61C"/>
<path d="M81.7217 66.8889V24H109.834V30.8889H90.0028V42.6667H105.911V49.3333H90.0028V66.8889H81.7217Z" fill="#006980"/>
<path d="M124.434 39.5556H116.153V67.1111H124.434V39.5556Z" fill="#006980"/>
<path d="M132.934 66.8889V35.1111H140.343L140.997 40.2222C141.868 38.4444 143.394 37.1111 145.137 36C146.881 34.8889 149.06 34.4444 151.457 34.4444C154.072 34.4444 156.251 34.8889 157.995 36C159.738 37.1111 161.046 38.6667 162.135 40.8889C163.007 42.8889 163.443 45.5556 163.443 48.6667V67.1111H155.162V49.5556C155.162 47.1111 154.726 45.1111 153.636 43.7778C152.547 42.4444 151.021 41.7778 148.842 41.7778C147.535 41.7778 146.227 42.2222 145.137 42.8889C144.048 43.5556 143.176 44.4444 142.522 45.7778C141.868 47.1111 141.651 48.4444 141.651 50.2222V67.1111H132.934V66.8889Z" fill="#006980"/>
<path d="M181.531 66.8889C178.916 66.8889 176.736 66.4444 175.211 65.5556C173.468 64.6667 172.378 63.5556 171.506 62C170.635 60.4444 170.199 58.8889 170.199 57.1111C170.199 55.1111 170.635 53.5556 171.724 52C172.596 50.4444 174.121 49.3333 176.083 48.4444C178.044 47.5556 180.441 47.1111 183.492 47.1111H191.119C191.119 45.5556 190.902 44.2222 190.466 43.3333C190.03 42.2222 189.376 41.5556 188.504 41.1111C187.633 40.6667 186.543 40.4444 185.018 40.4444C183.492 40.4444 182.185 40.8889 181.095 41.5556C180.005 42.2222 179.352 43.3333 179.134 44.6667H171.07C171.288 42.4444 171.942 40.4444 173.25 38.6667C174.557 37.1111 176.083 35.7778 178.262 34.8889C180.441 34 182.62 33.5556 185.235 33.5556C188.068 33.5556 190.684 34 192.863 35.1111C195.042 36.2222 196.568 37.5556 197.875 39.5556C198.965 41.5556 199.618 43.7778 199.618 46.4444V66H192.645L191.773 61.1111C191.337 62 190.684 62.6667 190.248 63.3333C189.594 64 188.94 64.6667 188.069 65.1111C187.197 65.5556 186.325 66 185.235 66.2222C183.928 66.8889 182.838 66.8889 181.531 66.8889ZM183.492 60.4444C184.582 60.4444 185.453 60.2222 186.325 59.7778C187.197 59.3333 187.851 58.8889 188.504 58.2222C189.158 57.5556 189.594 56.6667 190.03 55.7778C190.466 54.8889 190.684 54 190.684 52.8889H184.364C183.056 52.8889 181.967 53.1111 181.313 53.3333C180.441 53.5556 180.005 54 179.569 54.6667C179.134 55.3333 178.916 56 178.916 56.6667C178.916 57.5556 179.134 58.2222 179.569 58.6667C180.005 59.1111 180.441 59.5556 181.095 60C181.749 60.2222 182.62 60.4444 183.492 60.4444Z" fill="#006980"/>
<path d="M207.246 66.8889V35.1111H214.655L215.309 40.2222C216.18 38.4444 217.706 37.1111 219.449 36C221.193 34.8889 223.372 34.4444 225.769 34.4444C228.384 34.4444 230.563 34.8889 232.307 36C234.05 37.1111 235.358 38.6667 236.447 40.8889C237.319 42.8889 237.755 45.5556 237.755 48.6667V67.1111H229.474V49.5556C229.474 47.1111 229.038 45.1111 227.948 43.7778C226.859 42.4444 225.333 41.7778 223.154 41.7778C221.847 41.7778 220.539 42.2222 219.449 42.8889C218.36 43.5556 217.488 44.4444 216.834 45.7778C216.18 47.1111 215.963 48.4444 215.963 50.2222V67.1111H207.246V66.8889Z" fill="#006980"/>
<path d="M260.419 66.8889C257.368 66.8889 254.535 66.2222 252.138 64.6667C249.741 63.3333 247.78 61.3333 246.472 58.8889C245.165 56.4444 244.511 53.5556 244.511 50.4444C244.511 47.1111 245.165 44.2222 246.472 41.7778C247.78 39.3333 249.741 37.3333 252.138 35.7778C254.535 34.2222 257.368 33.5556 260.419 33.5556C264.342 33.5556 267.829 34.6667 270.444 36.6667C273.059 38.8889 274.802 41.7778 275.674 45.5556H266.739C266.303 44 265.649 42.8889 264.342 42C263.252 41.1111 261.727 40.6667 260.201 40.6667C258.676 40.6667 257.368 41.1111 256.279 41.7778C255.189 42.4444 254.317 43.5556 253.664 44.8889C253.01 46.2222 252.792 48 252.792 50C252.792 51.5556 253.01 52.8889 253.446 54C253.881 55.1111 254.317 56.2222 254.971 56.8889C255.625 57.7778 256.497 58.2222 257.368 58.6667C258.24 59.1111 259.33 59.3333 260.419 59.3333C261.509 59.3333 262.381 59.1111 263.252 58.6667C264.124 58.2222 264.996 57.7778 265.431 57.1111C266.085 56.4444 266.521 55.5556 266.739 54.6667H275.674C275.02 58.2222 273.277 61.3333 270.444 63.3333C267.611 65.7778 264.342 66.8889 260.419 66.8889Z" fill="#006980"/>
<path d="M280.032 44.6667V37.5556H299.427V44.6667H280.032ZM284.173 66.8889V34.8889C284.173 32.2222 284.609 30.2222 285.48 28.6667C286.352 27.1111 287.66 26 289.185 25.3333C290.71 24.6667 292.672 24.2222 294.851 24.2222H298.774V31.5556H296.159C294.851 31.5556 293.979 31.7778 293.326 32.4444C292.672 32.8889 292.454 33.7778 292.454 35.1111V67.3333H284.173V66.8889Z" fill="#006980"/>
<path d="M309.67 80L317.297 62.6667H315.336L302.914 34.4444H312.067L321.002 54.8889L329.065 34.4444H338L318.605 80H309.67Z" fill="#006980"/>
<path d="M124.434 28H116.153V36.4444H124.434V28Z" fill="#FFB61C"/>
</g>
<defs>
<clipPath id="clip0_743_222">
<rect width="338" height="80" fill="white"/>
</clipPath>
</defs>
</svg>
