<svg width="293" height="38" viewBox="0 0 293 38" fill="none" xmlns="http://www.w3.org/2000/svg">
<g clip-path="url(#clip0_576_150)">
<path d="M28.8446 24.956C13.7857 37.9321 7.82017 19.27 -0.0107422 9.81111C15.0481 -3.18208 21.0126 15.4971 28.8446 24.9379V24.956Z" fill="#2A387D"/>
<path d="M28.8446 24.956C13.7857 37.9321 7.82017 19.27 -0.0107422 9.81111C15.0481 -3.18208 21.0126 15.4971 28.8446 24.9379V24.956Z" fill="#503AEE"/>
<path d="M75.5038 10.1578C75.1011 9.90318 74.626 9.92122 74.4247 10.213L59.3839 32.1728C55.2113 26.3224 40.1524 5.21885 40.1524 5.21885C35.6335 -1.28727 27.3264 0.827301 22.2578 5.43743C22.2578 5.43743 42.5493 33.8863 42.5493 33.8672C47.0693 40.3733 55.3764 38.2598 60.445 33.6487L75.8692 11.1234C76.0706 10.8326 75.9065 10.3945 75.5038 10.1398V10.1578Z" fill="#3866FF"/>
<path d="M121.321 10.5042L109.867 34.1042H104.212L93.3071 10.5042H99.8938L107.158 27.4527L114.679 10.5042H121.357H121.321Z" fill="#00156A"/>
<path d="M131.165 34.1227H124.87V10.5035H131.165V34.1046V34.1227ZM132.172 3.7247C132.172 5.03716 131.841 6.0027 131.183 6.62233C130.525 7.24196 129.5 7.55177 128.091 7.55177C126.682 7.55177 125.602 7.26001 124.98 6.67647C124.358 6.09394 124.066 5.10935 124.066 3.74275C124.066 2.37616 124.377 1.46476 125.017 0.863178C125.639 0.261597 126.682 -0.0482216 128.11 -0.0482216C129.536 -0.0482216 130.561 0.261597 131.22 0.863178C131.861 1.46476 132.19 2.41225 132.19 3.74275L132.172 3.7247Z" fill="#00156A"/>
<path d="M162.655 10.5042L151.201 34.1042H145.547L134.642 10.5042H141.229L148.493 27.4527L156.013 10.5042H162.692H162.655Z" fill="#00156A"/>
<path d="M174.476 30.3323C176.964 30.3323 179.086 29.6214 180.862 28.1816C182.619 26.7418 183.515 25.0835 183.515 23.1885V22.3683C183.076 22.7142 182.417 23.0421 181.557 23.2978C180.697 23.5524 179.544 23.771 178.099 23.9354C176.159 24.136 174.769 24.3184 173.872 24.5009C172.994 24.6824 172.28 24.9381 171.75 25.2298C171.219 25.5206 170.835 25.8675 170.615 26.2315C170.396 26.5964 170.286 27.0516 170.286 27.562V27.5991C170.286 28.5095 170.633 29.1842 171.329 29.6394C172.024 30.0956 173.086 30.3142 174.476 30.3142V30.3323ZM189.389 34.1232H184.394L183.771 29.075C182.801 30.9158 181.319 32.3185 179.379 33.3211C177.44 34.3238 175.153 34.8151 172.518 34.8151C169.664 34.8151 167.467 34.2506 165.949 33.1387C164.43 32.0087 163.662 30.4235 163.662 28.328C163.662 26.9794 163.955 25.8304 164.522 24.8288C165.09 23.8442 165.931 23.0421 167.066 22.4415C168.109 21.876 169.261 21.4389 170.542 21.1471C171.822 20.8553 174.019 20.5636 177.129 20.2728C179.708 20.0171 181.411 19.7254 182.234 19.3434C183.058 18.9784 183.478 18.3768 183.478 17.5567V17.5206C183.478 16.4818 183.002 15.6978 182.033 15.1513C181.063 14.6229 179.618 14.3492 177.696 14.3492C175.427 14.3492 173.744 14.6961 172.628 15.425C171.511 16.1359 170.871 17.2659 170.743 18.7959H164.412C164.687 15.9163 165.949 13.7115 168.163 12.1625C170.396 10.6134 173.433 9.84837 177.293 9.84837C181.484 9.84837 184.558 10.5592 186.497 11.9619C188.437 13.3656 189.425 15.6065 189.425 18.6686V34.1232H189.389Z" fill="#00156A"/>
<path d="M218.683 26.8148C218.683 29.2752 217.622 31.2254 215.499 32.6652C213.377 34.105 210.43 34.8148 206.679 34.8148C202.599 34.8148 199.433 34.105 197.201 32.7013C194.951 31.2976 193.615 29.166 193.176 26.3225H200.019C200.294 27.6169 200.989 28.5463 202.069 29.1108C203.166 29.6763 204.777 29.9681 206.936 29.9681C208.875 29.9681 210.284 29.7304 211.199 29.2752C212.114 28.819 212.553 28.0721 212.553 27.0514C212.553 26.2503 212.096 25.6848 211.199 25.3208C210.302 24.9739 208.216 24.6641 204.942 24.4094C200.97 24.1177 198.189 23.4249 196.561 22.332C194.951 21.2561 194.145 19.6529 194.145 17.5564C194.145 15.1511 195.152 13.2561 197.146 11.8895C199.141 10.5219 201.922 9.83008 205.472 9.83008C209.022 9.83008 212.114 10.4858 214.218 11.7802C216.322 13.0736 217.658 15.0418 218.226 17.6657H211.766C211.51 16.5367 210.888 15.7166 209.882 15.2062C208.875 14.6959 207.393 14.4222 205.435 14.4222C203.678 14.4222 202.343 14.6407 201.465 15.0969C200.587 15.5521 200.147 16.2269 200.147 17.1373C200.147 17.9575 200.605 18.541 201.52 18.905C202.434 19.2519 204.466 19.5617 207.631 19.8164C211.858 20.1633 214.749 20.8741 216.322 21.9309C217.896 22.9697 218.683 24.5909 218.683 26.7967V26.8148Z" fill="#00156A"/>
<path d="M236.139 29.6762C238.572 29.6762 240.42 29.0746 241.701 27.8724C242.982 26.6692 243.604 24.9196 243.604 22.6055V22.2767C243.604 19.8714 242.964 18.0305 241.701 16.7552C240.438 15.4798 238.591 14.8411 236.175 14.8411C233.76 14.8411 231.949 15.4798 230.649 16.7732C229.351 18.0676 228.691 19.8894 228.691 22.2767V22.6055C228.691 24.9016 229.331 26.6512 230.595 27.8724C231.875 29.0746 233.723 29.6762 236.12 29.6762H236.139ZM236.047 34.8157C231.564 34.8157 228.179 33.795 225.873 31.7356C223.568 29.6762 222.416 26.6512 222.416 22.6597V22.2957C222.416 18.4687 223.66 15.4247 226.148 13.2018C228.637 10.978 231.967 9.84798 236.139 9.84798C240.31 9.84798 243.714 10.9599 246.166 13.1828C248.635 15.4066 249.861 18.4496 249.861 22.2957V22.6597C249.861 26.4868 248.654 29.4756 246.238 31.6082C243.805 33.7398 240.42 34.8157 236.065 34.8157H236.047Z" fill="#00156A"/>
<path d="M269.843 10.5042V15.6798H263.165L263.128 34.1233H257.255V15.6798H252.039V10.5042H257.255V9.48347C257.255 6.22189 257.931 3.94389 259.267 2.63144C260.621 1.31898 262.926 0.663261 266.238 0.663261H269.898V5.54711H266.952C265.36 5.54711 264.336 5.82083 263.859 6.34922C263.402 6.87761 263.165 8.04368 263.165 9.86647V10.5222H269.843V10.5042Z" fill="#00156A"/>
<path d="M290.227 28.6919H292.751V34.1041H288.635C284.975 34.1041 282.45 33.3933 281.096 31.9725C279.742 30.5508 279.065 27.8176 279.065 23.808V15.7528H273.521V10.7778C274.381 10.7778 275.04 10.7778 275.442 10.7587C275.864 10.7587 276.265 10.7226 276.668 10.7046C277.638 10.6685 278.315 10.4679 278.663 10.0669C279.01 9.66583 279.248 8.89981 279.395 7.75179C279.467 7.29659 279.541 6.71306 279.577 6.00219C279.614 5.31037 279.633 4.69074 279.596 4.1433H284.811V10.504H292.733V15.7709H284.811V22.7874C284.811 25.3571 285.122 26.9974 285.726 27.6712C286.348 28.364 287.83 28.6919 290.209 28.6919H290.227Z" fill="#00156A"/>
</g>
<defs>
<clipPath id="clip0_576_150">
<rect width="292.741" height="38" fill="white"/>
</clipPath>
</defs>
</svg>
